<svg width="32" height="32" viewBox="0 0 32 32" fill="none" xmlns="http://www.w3.org/2000/svg">
<path fill-rule="evenodd" clip-rule="evenodd" d="M16.0509 20.2554C16.5946 20.2554 17.0354 19.8216 17.0354 19.2865C17.0354 18.7514 16.5946 18.3176 16.0509 18.3176C15.5072 18.3176 15.0664 18.7514 15.0664 19.2865C15.0664 19.8216 15.5072 20.2554 16.0509 20.2554ZM16.0509 13.3804C16.5121 13.3804 16.8992 13.6925 17.0061 14.1138L17.0354 14.1136L17.0251 14.2088C17.0319 14.2547 17.0354 14.3016 17.0354 14.3493C17.0354 14.474 17.0114 14.5932 16.9678 14.7026L16.6857 17.1136C16.6857 17.4586 16.4015 17.7383 16.051 17.7383C15.7004 17.7383 15.4163 17.4586 15.4163 17.1136C15.4163 17.1099 15.4163 17.1062 15.4164 17.1025L15.1323 14.6986C15.0898 14.5902 15.0664 14.4724 15.0664 14.3493C15.0664 14.3037 15.0696 14.2588 15.0758 14.2149L15.0664 14.1303L15.0917 14.13C15.1926 13.7005 15.5838 13.3804 16.0509 13.3804Z" fill="#A6A6A6"/>
<path fill-rule="evenodd" clip-rule="evenodd" d="M19.0117 10.5C19.3569 10.5 19.6694 10.6399 19.8956 10.8661C20.1218 11.0923 20.2617 11.4048 20.2617 11.75V21.75C20.2617 22.0952 20.1218 22.4077 19.8956 22.6339C19.6694 22.8601 19.3569 23 19.0117 23H13.0117C12.6665 23 12.354 22.8601 12.1278 22.6339C11.9016 22.4077 11.7617 22.0952 11.7617 21.75V11.75C11.7617 11.4048 11.9016 11.0923 12.1278 10.8661C12.354 10.6399 12.6665 10.5 13.0117 10.5H19.0117Z" stroke="#A6A6A6" stroke-width="1.5"/>
<path fill-rule="evenodd" clip-rule="evenodd" d="M14.7617 9H17.2617C17.6759 9 18.0117 9.33579 18.0117 9.75C18.0117 10.1642 17.6759 10.5 17.2617 10.5H14.7617C14.3475 10.5 14.0117 10.1642 14.0117 9.75C14.0117 9.33579 14.3475 9 14.7617 9Z" fill="#A6A6A6"/>
</svg>
