<svg width="32" height="32" viewBox="0 0 32 32" fill="none" xmlns="http://www.w3.org/2000/svg">
<path fill-rule="evenodd" clip-rule="evenodd" d="M19.0117 10.5C19.3569 10.5 19.6694 10.6399 19.8956 10.8661C20.1218 11.0923 20.2617 11.4048 20.2617 11.75V21.75C20.2617 22.0952 20.1218 22.4077 19.8956 22.6339C19.6694 22.8601 19.3569 23 19.0117 23H13.0117C12.6665 23 12.354 22.8601 12.1278 22.6339C11.9016 22.4077 11.7617 22.0952 11.7617 21.75V11.75C11.7617 11.4048 11.9016 11.0923 12.1278 10.8661C12.354 10.6399 12.6665 10.5 13.0117 10.5H19.0117Z" stroke="#F53945" stroke-width="1.5"/>
<path fill-rule="evenodd" clip-rule="evenodd" d="M14.5117 19.25H17.5117C18.064 19.25 18.5117 19.6977 18.5117 20.25C18.5117 20.8023 18.064 21.2499 17.5117 21.2499H14.5117C13.9594 21.2499 13.5117 20.8022 13.5117 20.2499C13.5117 19.6976 13.9594 19.25 14.5117 19.25Z" fill="#F53945" fill-opacity="0.4"/>
<path fill-rule="evenodd" clip-rule="evenodd" d="M14.7617 9H17.2617C17.6759 9 18.0117 9.33579 18.0117 9.75C18.0117 10.1642 17.6759 10.5 17.2617 10.5H14.7617C14.3475 10.5 14.0117 10.1642 14.0117 9.75C14.0117 9.33579 14.3475 9 14.7617 9Z" fill="#F53945"/>
</svg>
