<svg width="24" height="24" viewBox="0 0 24 24" fill="none" xmlns="http://www.w3.org/2000/svg">
<path fill-rule="evenodd" clip-rule="evenodd" d="M8.44597 0.773743C7.92132 0.773743 7.45057 1.09611 7.2609 1.58528L6.96633 2.34501L8.63573 4.01441L9.05474 2.93374L16.7892 2.93377L14.3784 7.99445C13.9766 8.83792 14.5916 9.81212 15.5259 9.81212H18.4053L16.4262 11.8048L17.9535 13.3322L21.4429 9.81881C22.2394 9.01685 21.6713 7.65212 20.5411 7.65212H16.934L19.3449 2.59144C19.7467 1.74796 19.1317 0.773775 18.1974 0.773772L8.44597 0.773743ZM15.2612 16.043L13.7339 14.5157L8.87904 19.4039L10.2554 12.7998C10.4199 12.0105 9.81741 11.2695 9.01115 11.2695H5.82271L7.12609 7.90792L5.45669 6.23852L3.33951 11.699C3.01652 12.532 3.63112 13.4295 4.52458 13.4295H7.9178L6.15275 21.8983C5.89462 23.1368 7.40735 23.951 8.29887 23.0533L15.2612 16.043Z" fill="white"/>
<rect x="1.00941" y="1.83783" width="2.16" height="28" rx="1.08" transform="rotate(-45 1.00941 1.83783)" fill="white"/>
</svg>
