<svg width="48" height="48" viewBox="0 0 48 48" fill="none" xmlns="http://www.w3.org/2000/svg">
<path d="M18.4004 17.7002H28.5996C29.7395 17.7002 30.5231 17.7014 31.1299 17.751C31.5744 17.7873 31.8646 17.8461 32.0791 17.9229L32.2715 18.0049C32.7325 18.2398 33.1177 18.5975 33.3867 19.0361L33.4951 19.2285C33.6125 19.4589 33.7006 19.7776 33.749 20.3701C33.7986 20.9769 33.7998 21.7605 33.7998 22.9004V25.0996C33.7998 26.2395 33.7986 27.0231 33.749 27.6299C33.7127 28.0744 33.6539 28.3646 33.5771 28.5791L33.4951 28.7715C33.2602 29.2325 32.9025 29.6177 32.4639 29.8867L32.2715 29.9951C32.0411 30.1125 31.7224 30.2006 31.1299 30.249C30.5231 30.2986 29.7395 30.2998 28.5996 30.2998H18.4004C17.2605 30.2998 16.4769 30.2986 15.8701 30.249C15.4256 30.2127 15.1354 30.1539 14.9209 30.0771L14.7285 29.9951C14.2675 29.7602 13.8823 29.4025 13.6133 28.9639L13.5049 28.7715C13.3875 28.5411 13.2994 28.2224 13.251 27.6299C13.2014 27.0231 13.2002 26.2395 13.2002 25.0996V22.9004L13.207 21.4355C13.2135 21.0214 13.2262 20.6736 13.251 20.3701C13.2873 19.9256 13.3461 19.6354 13.4229 19.4209L13.5049 19.2285C13.7398 18.7675 14.0975 18.3823 14.5361 18.1133L14.7285 18.0049C14.9589 17.8875 15.2776 17.7994 15.8701 17.751C16.4769 17.7014 17.2605 17.7002 18.4004 17.7002Z" stroke="#FFBE0A" stroke-width="2.4" stroke-linejoin="round"/>
<rect x="33" y="20.5" width="4" height="7" rx="2" fill="#FFBE0A"/>
</svg>
