<svg width="32" height="32" viewBox="0 0 32 32" fill="none" xmlns="http://www.w3.org/2000/svg">
<rect x="9.66821" y="10.9052" width="12.6998" height="11.9061" rx="1.6" stroke="#A6A6A6" stroke-width="1.5"/>
<path fill-rule="evenodd" clip-rule="evenodd" d="M12.0203 9.47623C12.0203 9.21322 12.2335 9 12.4965 9H14.4838C14.7468 9 14.96 9.21322 14.96 9.47623V10.4699H12.0203V9.47623Z" fill="#A6A6A6"/>
<path fill-rule="evenodd" clip-rule="evenodd" d="M17.0761 9.47623C17.0761 9.21322 17.2893 9 17.5523 9H19.5396C19.8027 9 20.0159 9.21322 20.0159 9.47623V10.4699H17.0761V9.47623Z" fill="#A6A6A6"/>
<path fill-rule="evenodd" clip-rule="evenodd" d="M15.9845 20.275C16.5282 20.275 16.9689 19.8412 16.9689 19.3061C16.9689 18.771 16.5282 18.3372 15.9845 18.3372C15.4408 18.3372 15 18.771 15 19.3061C15 19.8412 15.4408 20.275 15.9845 20.275ZM15.9845 13.4C16.4457 13.4 16.8328 13.7121 16.9397 14.1334L16.9689 14.1332L16.9587 14.2285C16.9654 14.2743 16.9689 14.3212 16.9689 14.3689C16.9689 14.4936 16.945 14.6128 16.9014 14.7223L16.6193 17.1332C16.6193 17.4782 16.3351 17.7579 15.9846 17.7579C15.634 17.7579 15.3499 17.4782 15.3499 17.1332C15.3499 17.1295 15.3499 17.1258 15.35 17.1221L15.0659 14.7182C15.0233 14.6098 15 14.492 15 14.3689C15 14.3233 15.0032 14.2784 15.0094 14.2345L15 14.1499L15.0253 14.1497C15.1262 13.7202 15.5174 13.4 15.9845 13.4Z" fill="#A6A6A6"/>
</svg>
