<svg width="32" height="32" viewBox="0 0 32 32" fill="none" xmlns="http://www.w3.org/2000/svg">
<rect x="9.66821" y="10.9052" width="12.6998" height="11.9061" rx="1.6" stroke="#1890FF" stroke-width="1.5"/>
<path fill-rule="evenodd" clip-rule="evenodd" d="M12.0203 9.47623C12.0203 9.21322 12.2335 9 12.4965 9H14.4838C14.7468 9 14.96 9.21322 14.96 9.47623V10.4699H12.0203V9.47623Z" fill="#1890FF"/>
<path fill-rule="evenodd" clip-rule="evenodd" d="M17.0761 9.47623C17.0761 9.21322 17.2893 9 17.5523 9H19.5396C19.8027 9 20.0159 9.21322 20.0159 9.47623V10.4699H17.0761V9.47623Z" fill="#1890FF"/>
<path opacity="0.4" fill-rule="evenodd" clip-rule="evenodd" d="M11.6084 17.4066C11.6084 17.0753 11.877 16.8066 12.2084 16.8066H19.8277C20.1591 16.8066 20.4277 17.0753 20.4277 17.4066V20.3064C20.4277 20.6378 20.1591 20.9064 19.8277 20.9064H12.2084C11.877 20.9064 11.6084 20.6378 11.6084 20.3064V17.4066Z" fill="#1890FF"/>
</svg>
