<svg width="24" height="24" viewBox="0 0 24 24" fill="none" xmlns="http://www.w3.org/2000/svg">
<path d="M19.0605 17.1709C19.3056 16.8369 19.7744 16.7647 20.1084 17.0098C20.4423 17.2548 20.5145 17.7237 20.2695 18.0576C18.4055 20.5981 15.3954 22.25 12 22.25C8.60477 22.2499 5.59541 20.598 3.73145 18.0576C3.48641 17.7237 3.55862 17.2548 3.89258 17.0098C4.22654 16.7648 4.6954 16.8369 4.94043 17.1709C6.53399 19.3426 9.10275 20.7499 12 20.75C14.8975 20.75 17.4669 19.3428 19.0605 17.1709ZM16.0312 16.1006C16.3266 15.8102 16.8014 15.8142 17.0918 16.1094C17.3821 16.4047 17.3782 16.8795 17.083 17.1699C15.7754 18.4555 13.9795 19.25 12 19.25C10.0207 19.2499 8.22547 18.4554 6.91797 17.1699C6.62269 16.8795 6.61883 16.4047 6.90918 16.1094C7.19959 15.8143 7.67444 15.8103 7.96973 16.1006C9.00807 17.1213 10.4299 17.7499 12 17.75C13.5703 17.75 14.9928 17.1215 16.0312 16.1006ZM12 4.75C13.9863 4.75 15.788 5.54947 17.0967 6.84277C17.3912 7.13388 17.3935 7.6087 17.1025 7.90332C16.8114 8.19789 16.3366 8.20119 16.042 7.91016C15.0026 6.88303 13.5757 6.25 12 6.25C10.4244 6.25011 8.99825 6.88312 7.95898 7.91016C7.66436 8.20129 7.18958 8.19793 6.89844 7.90332C6.60736 7.6087 6.60971 7.1339 6.9043 6.84277C8.21291 5.54958 10.0139 4.75011 12 4.75ZM12 1.75C15.3954 1.75 18.4055 3.40186 20.2695 5.94238C20.5145 6.27632 20.4423 6.7452 20.1084 6.99023C19.7744 7.23527 19.3056 7.16306 19.0605 6.8291C17.4669 4.65722 14.8975 3.25 12 3.25C9.10275 3.25013 6.53399 4.65736 4.94043 6.8291C4.6954 7.16305 4.22654 7.23524 3.89258 6.99023C3.55862 6.7452 3.48641 6.27634 3.73145 5.94238C5.59541 3.40197 8.60477 1.75013 12 1.75Z" fill="#7F7F7F"/>
<path d="M18.9856 11.846V11.882C19.4476 12.02 19.7776 12.35 19.7776 12.974C19.7776 13.808 19.1896 14.33 18.1396 14.33H15.9316V9.59003H17.9776C18.9796 9.59003 19.5496 10.034 19.5496 10.892C19.5496 11.39 19.3156 11.708 18.9856 11.846ZM17.8456 10.598H17.0476V11.426H17.8396C18.1936 11.426 18.4036 11.276 18.4036 10.988C18.4036 10.718 18.1996 10.598 17.8456 10.598ZM17.0476 13.322H18.0196C18.3616 13.322 18.6376 13.178 18.6376 12.866C18.6376 12.578 18.3616 12.434 18.0136 12.434H17.0476V13.322Z" fill="#7F7F7F"/>
<path d="M9.83617 14.33L8.57617 9.59003H9.74017L10.4962 12.74H10.5322L11.4082 9.59003H12.6082L13.5442 12.74H13.5802L14.3362 9.59003H15.5002L14.1802 14.33H13.0402L12.0262 11.216H11.9902L10.9762 14.33H9.83617Z" fill="#7F7F7F"/>
<path d="M6.18647 13.37C6.70247 13.37 7.02647 13.082 7.02647 12.44V9.59003H8.14247V12.482C8.14247 13.724 7.38647 14.414 6.18647 14.414C4.98647 14.414 4.23047 13.724 4.23047 12.482V9.59003H5.34647V12.416C5.34647 13.07 5.67047 13.37 6.18647 13.37Z" fill="#7F7F7F"/>
</svg>
