<svg width="17" height="17" viewBox="0 0 17 17" fill="none" xmlns="http://www.w3.org/2000/svg">
<path d="M6.51748 4.82622C7.19159 3.75557 7.52865 3.22025 7.95941 3.03632C8.33566 2.87567 8.76121 2.87567 9.13747 3.03632C9.56823 3.22025 9.90528 3.75558 10.5794 4.82623L13.8822 10.0718C14.6378 11.2719 15.0156 11.8719 14.9769 12.3673C14.9432 12.7991 14.7245 13.1953 14.377 13.4539C13.9784 13.7506 13.2693 13.7506 11.8512 13.7506H5.24565C3.82756 13.7506 3.11851 13.7506 2.71987 13.4539C2.37241 13.1953 2.1537 12.7991 2.11999 12.3673C2.08132 11.8719 2.45911 11.2719 3.21469 10.0718L6.51748 4.82622Z" stroke="white" stroke-linecap="round" stroke-linejoin="round"/>
<path fill-rule="evenodd" clip-rule="evenodd" d="M8.55006 9.47776C8.87184 9.47776 9.13269 9.21691 9.13269 8.89513L9.13269 6.91418C9.13269 6.5924 8.87184 6.33154 8.55006 6.33154C8.22828 6.33154 7.96743 6.5924 7.96743 6.91418L7.96743 8.89513C7.96743 9.21691 8.22828 9.47776 8.55006 9.47776ZM8.55072 10.058C8.16459 10.058 7.85156 10.371 7.85156 10.7571C7.85156 11.1433 8.16459 11.4563 8.55072 11.4563C8.93686 11.4563 9.24988 11.1433 9.24988 10.7571C9.24988 10.371 8.93686 10.058 8.55072 10.058Z" fill="white"/>
</svg>
