<svg width="20" height="20" viewBox="0 0 20 20" fill="none" xmlns="http://www.w3.org/2000/svg">
<path d="M7.66309 2.08301C8.05534 2.08301 8.2522 2.08313 8.40039 2.16309C8.51471 2.22485 8.60822 2.31923 8.66992 2.43359C8.74973 2.58175 8.75 2.77791 8.75 3.16992V3.33301H11.25V3.16992C11.25 2.778 11.2503 2.58174 11.3301 2.43359C11.3918 2.31912 11.4861 2.22485 11.6006 2.16309C11.7487 2.08326 11.9449 2.08301 12.3369 2.08301H12.6631C13.0553 2.08301 13.2522 2.08313 13.4004 2.16309C13.5147 2.22485 13.6082 2.31923 13.6699 2.43359C13.7497 2.58175 13.75 2.77791 13.75 3.16992V3.33496C13.9632 3.33774 14.1569 3.34427 14.3301 3.3584C14.6595 3.38531 14.9875 3.44489 15.3027 3.60547C15.7729 3.84505 16.1558 4.22714 16.3955 4.69727C16.5561 5.0124 16.6156 5.34066 16.6426 5.66992C16.6687 5.98957 16.668 6.38019 16.668 6.83301V13.999C16.668 14.4518 16.6687 14.8424 16.6426 15.1621C16.6157 15.4914 16.556 15.8196 16.3955 16.1348C16.1558 16.605 15.773 16.9869 15.3027 17.2266C14.9874 17.3872 14.6595 17.4467 14.3301 17.4736C14.0104 17.4997 13.6207 17.499 13.168 17.499H6.83496C6.38202 17.499 5.99159 17.4998 5.67188 17.4736C5.34253 17.4467 5.01443 17.3872 4.69922 17.2266C4.22926 16.9869 3.84701 16.6047 3.60742 16.1348C3.44691 15.8196 3.38727 15.4914 3.36035 15.1621C3.33426 14.8424 3.33496 14.4518 3.33496 13.999V6.83301C3.33496 6.38019 3.33424 5.98957 3.36035 5.66992C3.38729 5.34066 3.44685 5.0124 3.60742 4.69727C3.84705 4.22735 4.22927 3.84505 4.69922 3.60547C5.01442 3.44489 5.34255 3.38532 5.67188 3.3584C5.84442 3.3443 6.03757 3.33775 6.25 3.33496V3.16992C6.25 2.778 6.25032 2.58174 6.33008 2.43359C6.39184 2.31912 6.48612 2.22485 6.60059 2.16309C6.74875 2.08326 6.94487 2.08301 7.33691 2.08301H7.66309ZM6.83496 4.99902C6.35452 4.99902 6.04373 5.00024 5.80762 5.01953C5.5816 5.03802 5.49728 5.06886 5.45605 5.08984C5.29939 5.16969 5.17169 5.29747 5.0918 5.4541C5.07082 5.49527 5.03999 5.5797 5.02148 5.80566C5.0022 6.04172 5.00098 6.35273 5.00098 6.83301V13.999C5.00098 14.4793 5.00222 14.7903 5.02148 15.0264C5.03994 15.2521 5.07081 15.3366 5.0918 15.3779C5.17165 15.5346 5.29938 15.6623 5.45605 15.7422C5.49724 15.7632 5.58146 15.794 5.80762 15.8125C6.04373 15.8318 6.35452 15.833 6.83496 15.833H13.168C13.6481 15.833 13.9583 15.8318 14.1943 15.8125C14.4199 15.7941 14.5045 15.7632 14.5459 15.7422C14.7025 15.6623 14.8303 15.5345 14.9102 15.3779C14.9311 15.3366 14.963 15.2521 14.9814 15.0264C15.0007 14.7903 15.001 14.4793 15.001 13.999V6.83301C15.001 6.35273 15.0007 6.04172 14.9814 5.80566C14.9629 5.57968 14.9311 5.49527 14.9102 5.4541C14.8302 5.29758 14.7025 5.16963 14.5459 5.08984C14.5045 5.06885 14.4196 5.03794 14.1943 5.01953C13.9583 5.00028 13.6481 4.99902 13.168 4.99902H6.83496ZM12.5 12.083C13.1904 12.083 13.75 12.6427 13.75 13.333C13.75 14.0234 13.1904 14.583 12.5 14.583H7.5C6.8097 14.5829 6.25 14.0233 6.25 13.333C6.25 12.6427 6.8097 12.0831 7.5 12.083H12.5Z" fill="#FA382E"/>
</svg>
