<svg width="20" height="20" viewBox="0 0 20 20" fill="none" xmlns="http://www.w3.org/2000/svg">
<path d="M7.66431 2.08301C8.05594 2.08301 8.25256 2.08319 8.40063 2.16309C8.51491 2.22479 8.60843 2.31934 8.67017 2.43359C8.75007 2.58169 8.75024 2.77815 8.75024 3.16992V3.33398H11.2502V3.16992C11.2502 2.77831 11.2505 2.58167 11.3303 2.43359C11.3921 2.31943 11.4866 2.22473 11.6008 2.16309C11.7489 2.08361 11.9457 2.08301 12.3372 2.08301H12.6643C13.0559 2.08301 13.2526 2.08319 13.4006 2.16309C13.5149 2.22479 13.6084 2.31934 13.6702 2.43359C13.7501 2.58169 13.7502 2.77815 13.7502 3.16992V3.33594C13.9633 3.33872 14.1573 3.34525 14.3303 3.35938C14.4899 3.37243 14.6492 3.39352 14.8069 3.42969L15.6995 2.53809C16.0249 2.21279 16.5528 2.2127 16.8782 2.53809C17.2035 2.86348 17.2035 3.39135 16.8782 3.7168L3.32544 17.2695C3.00001 17.595 2.47217 17.5949 2.14673 17.2695C1.82129 16.9441 1.82129 16.4163 2.14673 16.0908L3.34399 14.8926C3.33391 14.6309 3.3352 14.3319 3.33521 14V6.83398C3.3352 6.38146 3.33451 5.99041 3.3606 5.6709C3.38754 5.34187 3.44728 5.01316 3.60767 4.69824C3.84726 4.22862 4.22978 3.84595 4.69946 3.60645C5.01445 3.44609 5.34303 3.38629 5.67212 3.35938C5.8445 3.34531 6.03807 3.33873 6.25024 3.33594V3.16992C6.25024 2.77831 6.25051 2.58167 6.33032 2.43359C6.39209 2.31943 6.48659 2.22473 6.60083 2.16309C6.74891 2.08361 6.94569 2.08301 7.33716 2.08301H7.66431ZM16.6682 6.83398V14C16.6682 14.4525 16.6689 14.8436 16.6428 15.1631C16.6159 15.4921 16.5561 15.8208 16.3958 16.1357C16.1562 16.6056 15.7729 16.9879 15.303 17.2275C14.9879 17.388 14.6595 17.4477 14.3303 17.4746C14.0108 17.5007 13.6207 17.5 13.1682 17.5H6.83521C6.3825 17.5 5.99173 17.5007 5.67212 17.4746C5.61352 17.4698 5.5548 17.4623 5.49634 17.4551L7.11841 15.834H13.1682C13.648 15.834 13.9586 15.8327 14.1946 15.8135C14.4193 15.7951 14.5047 15.7641 14.5461 15.7432C14.7024 15.6634 14.8306 15.5352 14.9104 15.3789C14.9314 15.3375 14.9633 15.2521 14.9817 15.0273C15.0009 14.7914 15.0012 14.4798 15.0012 14V7.95117L16.6653 6.28613C16.6672 6.45674 16.6682 6.6398 16.6682 6.83398ZM6.83521 5C6.35517 5 6.04389 5.00126 5.80786 5.02051C5.58292 5.03892 5.4977 5.06985 5.4563 5.09082C5.2999 5.1706 5.17191 5.29874 5.09204 5.45508C5.07108 5.49634 5.04019 5.58153 5.02173 5.80664C5.00247 6.04261 5.00122 6.35412 5.00122 6.83398V13.2363L13.2366 5H6.83521Z" fill="black"/>
</svg>
