<svg width="24" height="24" viewBox="0 0 24 24" fill="none" xmlns="http://www.w3.org/2000/svg">
<path d="M10.9072 2.38184C11.5456 1.87269 12.4515 1.87269 13.0898 2.38184L18 6.2998V4.9707C18 4.69456 18.2239 4.4707 18.5 4.4707H19.5C19.7759 4.47096 20 4.69472 20 4.9707V7.89551L22.3652 9.7832C22.6888 10.0414 22.7423 10.5132 22.4844 10.8369C22.2261 11.1606 21.7544 11.2142 21.4307 10.9561L20.25 10.0137V18.9707C20.2499 20.2131 19.2423 21.2204 18 21.2207H6C4.75745 21.2207 3.75015 20.2132 3.75 18.9707V10.0107L2.56641 10.9561C2.24265 11.2142 1.77098 11.1606 1.5127 10.8369C1.25486 10.5132 1.30826 10.0414 1.63184 9.7832L10.9072 2.38184ZM12.1543 3.55469C12.0631 3.48195 11.934 3.48192 11.8428 3.55469L5.25 8.81445V18.9707C5.25015 19.3848 5.58588 19.7207 6 19.7207H18C18.4139 19.7204 18.7499 19.3846 18.75 18.9707V8.81641L12.1543 3.55469ZM11.0293 6.2168C11.6171 5.82505 12.3829 5.82496 12.9707 6.2168L16.916 8.84668L17.25 9.06934V16.4707C17.2499 17.4369 16.4662 18.2204 15.5 18.2207H8.5C7.53359 18.2207 6.75015 17.4371 6.75 16.4707V9.06934L7.08398 8.84668L11.0293 6.2168ZM12.1387 7.46484C12.0548 7.40891 11.9453 7.409 11.8613 7.46484L8.25 9.87207V16.4707C8.25015 16.6086 8.36202 16.7207 8.5 16.7207H15.5C15.6378 16.7204 15.7499 16.6085 15.75 16.4707V9.87207L12.1387 7.46484ZM11.4277 9.4707C11.7753 9.24452 12.2247 9.24452 12.5723 9.4707L12.6455 9.52246L14.2109 10.7432L14.5 10.9678V14.4707C14.4998 15.1609 13.9403 15.7207 13.25 15.7207H10.75C10.0597 15.7207 9.50016 15.1609 9.5 14.4707V10.9678L9.78906 10.7432L11.3545 9.52246L11.4277 9.4707ZM11 11.7002V14.2207H13V11.7002L12 10.9209L11 11.7002Z" fill="#7F7F7F"/>
</svg>
