<svg width="17" height="14" viewBox="0 0 17 14" fill="none" xmlns="http://www.w3.org/2000/svg">
<path d="M6.51748 3.82598C7.19159 2.75533 7.52865 2.22001 7.95941 2.03608C8.33566 1.87542 8.76121 1.87542 9.13747 2.03608C9.56823 2.22001 9.90528 2.75533 10.5794 3.82598L13.8822 9.07159C14.6378 10.2716 15.0156 10.8716 14.9769 11.3671C14.9432 11.7989 14.7245 12.1951 14.377 12.4537C13.9784 12.7503 13.2693 12.7503 11.8512 12.7503H5.24565C3.82756 12.7503 3.11851 12.7503 2.71987 12.4537C2.37241 12.1951 2.1537 11.7989 2.11999 11.3671C2.08132 10.8716 2.45911 10.2716 3.21469 9.07159L6.51748 3.82598Z" stroke="white" stroke-linecap="round" stroke-linejoin="round"/>
<path fill-rule="evenodd" clip-rule="evenodd" d="M8.55006 8.47764C8.87184 8.47764 9.13269 8.21678 9.13269 7.895L9.13269 5.91405C9.13269 5.59227 8.87184 5.33142 8.55006 5.33142C8.22828 5.33142 7.96743 5.59227 7.96743 5.91405L7.96743 7.895C7.96743 8.21678 8.22828 8.47764 8.55006 8.47764ZM8.55072 9.05783C8.16459 9.05783 7.85156 9.37086 7.85156 9.75699C7.85156 10.1431 8.16459 10.4562 8.55072 10.4562C8.93686 10.4562 9.24988 10.1431 9.24988 9.75699C9.24988 9.37086 8.93686 9.05783 8.55072 9.05783Z" fill="white"/>
</svg>
