<svg width="24" height="24" viewBox="0 0 24 24" fill="none" xmlns="http://www.w3.org/2000/svg">
<path d="M15.0664 7C16.5598 7 17.3065 7.00044 17.877 7.29102C18.3787 7.54668 18.7873 7.95429 19.043 8.45605C19.2043 8.77274 19.2729 9.14399 19.3047 9.66699C19.3144 9.66678 19.3242 9.66602 19.334 9.66602C20.0702 9.66603 20.6668 10.2628 20.667 10.999V12.999C20.667 13.7354 20.0704 14.333 19.334 14.333C19.3252 14.333 19.3164 14.3312 19.3076 14.3311C19.2757 14.8551 19.2045 15.2268 19.043 15.5439L18.9395 15.7275C18.6832 16.1452 18.316 16.4853 17.877 16.709C17.3065 16.9996 16.5598 17 15.0664 17H8.2666C6.86676 17 6.12292 17.0001 5.56543 16.7607L5.45605 16.709C5.01705 16.4853 4.64975 16.1452 4.39355 15.7275L4.29102 15.5439C4.07306 15.1162 4.01852 14.5893 4.00488 13.7227L4 12.7334V11.2666C4 9.86675 3.9999 9.12292 4.23926 8.56543L4.29102 8.45605C4.51473 8.01705 4.85475 7.64975 5.27246 7.39355L5.45605 7.29102C6.02648 7.00038 6.77318 7 8.2666 7H15.0664ZM9.67871 15.4004H15.0664C15.8393 15.4004 16.3231 15.3989 16.6875 15.3691C17.0332 15.3409 17.1293 15.2954 17.1514 15.2842C17.352 15.1819 17.515 15.018 17.6172 14.8174C17.6286 14.7949 17.674 14.6991 17.7021 14.3545C17.7319 13.9901 17.7334 13.5065 17.7334 12.7334V11.2666C17.7334 10.4935 17.7319 10.0099 17.7021 9.64551C17.674 9.3009 17.6286 9.20509 17.6172 9.18262C17.515 8.98197 17.352 8.81809 17.1514 8.71582C17.1293 8.70458 17.0332 8.65911 16.6875 8.63086C16.3231 8.60111 15.8393 8.59961 15.0664 8.59961H9.67871V15.4004ZM8.0791 8.59961C7.41369 8.59997 6.97951 8.60357 6.64551 8.63086C6.3016 8.65896 6.20534 8.70428 6.18262 8.71582C5.98191 8.81808 5.81809 8.98191 5.71582 9.18262C5.70429 9.20532 5.65896 9.30154 5.63086 9.64551C5.60109 10.0099 5.59961 10.4935 5.59961 11.2666V12.7334C5.59961 13.5065 5.60109 13.9901 5.63086 14.3545C5.65896 14.6985 5.70429 14.7947 5.71582 14.8174C5.81809 15.0181 5.98191 15.1819 6.18262 15.2842C6.20534 15.2957 6.3016 15.341 6.64551 15.3691C6.97951 15.3964 7.41369 15.399 8.0791 15.3994V8.59961Z" fill="black"/>
</svg>
