<?xml version="1.0" encoding="UTF-8"?>
<svg width="24px" height="24px" viewBox="0 0 24 24" version="1.1" xmlns="http://www.w3.org/2000/svg" xmlns:xlink="http://www.w3.org/1999/xlink">
    <title>icon开关-n</title>
    <g id="icon开关-n" stroke="none" stroke-width="1" fill="none" fill-rule="evenodd">
        <path d="M17.84,5.14264166 C18.1415124,5.14264166 18.4161571,5.25767618 18.6224396,5.44625085 C20.2911681,7.12851526 21.32,9.44410935 21.32,12 C21.32,17.1472939 17.1472939,21.32 12,21.32 C6.85270613,21.32 2.68,17.1472939 2.68,12 C2.68,9.44410935 3.70883187,7.12851526 5.37494812,5.44476523 C5.58384294,5.25767618 5.85848759,5.14264166 6.16,5.14264166 C6.80065031,5.14264166 7.32,5.66199135 7.32,6.30264166 C7.32,6.60466252 7.20457718,6.87972494 7.01543618,7.08612427 C5.7693721,8.34872129 5,10.0845124 5,12 C5,15.8659932 8.13400675,19 12,19 C15.8659932,19 19,15.8659932 19,12 C19,10.0845124 18.2306279,8.34872129 16.9840509,7.08479383 C16.7954228,6.87972494 16.68,6.60466252 16.68,6.30264166 C16.68,5.66199135 17.1993497,5.14264166 17.84,5.14264166 Z M12,2.68 C12.5964675,2.68 13.08,3.16353247 13.08,3.76 L13.08,12.6 C13.08,13.1964675 12.5964675,13.68 12,13.68 C11.4035325,13.68 10.92,13.1964675 10.92,12.6 L10.92,3.76 C10.92,3.16353247 11.4035325,2.68 12,2.68 Z" id="Combined-Shape-Copy" fill="#7F7F7F"></path>
    </g>
</svg>